<svg width="25" height="34" viewBox="0 0 25 34" fill="#ffb103" xmlns="http://www.w3.org/2000/svg">
<path d="M19.0171 6.89922C16.1079 3.37662 13.2371 1.08742 13.1163 0.991724C12.4618 0.473161 11.5 0.94514 11.5 1.78922V6.24243C11.5 8.5422 8.49531 9.35172 7.3685 7.35259C7.0205 6.73523 6.1695 6.66535 5.72656 7.21278C2.69944 10.9534 0 15.6687 0 20.5241C0 27.5041 5.6075 33.1828 12.5 33.1828C19.3925 33.1828 25 27.5041 25 20.5241C25 15.5422 22.1576 10.7018 19.0171 6.89922ZM12.5 31.1574C6.71025 31.1574 2 26.3874 2 20.5241C2 16.4391 4.30644 12.3985 6.51775 9.46381C9.13744 11.8067 13.5 10.0063 13.5 6.24243V3.99943C17.9345 8.10231 23 14.4523 23 20.5241C23 26.3874 18.2898 31.1574 12.5 31.1574Z" fill="#ffb103"/>
<path d="M16.614 15.1676C16.1781 14.8243 15.5499 14.9038 15.2107 15.3453L8.21067 24.4595C7.69641 25.1292 8.17823 26.094 8.99935 26.094C9.29735 26.094 9.59223 25.9597 9.78942 25.703L16.7894 16.5887C17.1285 16.1473 17.0499 15.511 16.614 15.1676Z" fill="#ffb103"/>
<path d="M16.0001 26.094C17.1047 26.094 18.0001 25.1872 18.0001 24.0686C18.0001 22.95 17.1047 22.0432 16.0001 22.0432C14.8955 22.0432 14.0001 22.95 14.0001 24.0686C14.0001 25.1872 14.8955 26.094 16.0001 26.094Z" fill="#ffb103"/>
<path d="M8.99987 19.0051C10.1044 19.0051 10.9999 18.0983 10.9999 16.9797C10.9999 15.8611 10.1044 14.9543 8.99987 14.9543C7.8953 14.9543 6.99987 15.8611 6.99987 16.9797C6.99987 18.0983 7.8953 19.0051 8.99987 19.0051Z" fill="#ffb103"/>
</svg>
